<?xml version="1.0" encoding="utf-8"?>

<!DOCTYPE svg PUBLIC "-//W3C//DTD SVG 1.1//EN" "http://www.w3.org/Graphics/SVG/1.1/DTD/svg11.dtd">
<svg version="1.1" id="Layer_1" xmlns:serif="http://www.serif.com/"
	 xmlns="http://www.w3.org/2000/svg" xmlns:xlink="http://www.w3.org/1999/xlink" x="0px" y="0px" viewBox="0 0 1291.116 1638.771"
	 enable-background="new 0 0 1291.116 1638.771" xml:space="preserve">
<g id="status">
	<path id="path3940-5" d="M959.98,769.382C873.16,846.125,770.543,880.92,645.557,880.92s-228.083-35.757-314.903-112.5
		c-136.539,44.711-299.819,158.492-300,357.211l-0.48,370.673c-0.089,68.183,54.892,123.081,123.077,123.081h984.614
		c68.185,0,123.077-54.894,123.077-123.081v-369.23c0-170.673-135.669-314.558-300.961-357.692L959.98,769.382L959.98,769.382z"/>
	<path id="path3942-6" d="M1014.788,388.615c0,203.92-165.31,369.23-369.23,369.23s-369.23-165.311-369.23-369.23
		s165.31-369.23,369.23-369.23S1014.788,184.696,1014.788,388.615z"/>
</g>
</svg>
